v -0.363322 -0.387725 0.859330
v -0.550290 -0.387725 -0.682297
v -0.038214 0.990508 -0.126177
v 0.951827 -0.215059 -0.050857
vt 0.436598 0.753560
vt 0.833648 0.512884
vt 0.833648 1.000000
vt 0.436598 0.464299
vt 0.000000 0.195168
vt 0.436598 0.000000
vt 0.000000 0.685842
vt 0.423825 0.464299
vt 0.423825 0.925956
vt 0.436598 0.251320
vt 0.823853 0.000000
vt 0.823853 0.512884
vn 0.3538 0.2340 -0.9056
vn 0.4727 0.4361 0.7658
vn 0.1202 -0.9926 -0.0146
vn -0.9454 0.3050 0.1147
f 3/1/1 4/2/1 2/3/1
f 3/4/2 1/5/2 4/6/2
f 4/7/3 1/8/3 2/9/3
f 2/10/4 1/11/4 3/12/4